<svg xmlns="http://www.w3.org/2000/svg" viewBox="0 0 64 64">
  <rect width="64" height="64" rx="12" ry="12" fill="#ff8a80"/>
  <path d="M32 10c-8 0-14 6-14 14 0 6 3 10 6 14-4 4-6 8-6 14 0 8 6 12 14 12s14-4 14-12c0-6-2-10-6-14 3-4 6-8 6-14 0-8-6-14-14-14z" fill="#f44336"/>
  <circle cx="32" cy="26" r="8" fill="#ffebee"/>
  <circle cx="28" cy="24" r="2" fill="#263238"/>
  <circle cx="36" cy="24" r="2" fill="#263238"/>
  <path d="M28 32c2 2 6 2 8 0" stroke="#263238" stroke-width="2" fill="none" stroke-linecap="round"/>
</svg>
