<svg xmlns="http://www.w3.org/2000/svg" viewBox="0 0 48 48"><g><path fill="#4285F4" d="M43.6 20.5H42V20H24v8h11.3C34.7 32.1 30.1 35 24 35c-6.1 0-11.3-5-11.3-11S17.9 13 24 13c2.7 0 5.1.9 7 2.4l6.6-6.6C34.9 5.1 29.7 3 24 3 12.4 3 3 12.4 3 24s9.4 21 21 21c10.5 0 20-7.6 20-21 0-1.4-.2-2.5-.4-3.5z"/><path fill="#34A853" d="M6.3 14.1l6.6 4.8C14.5 16.1 18.8 13 24 13c2.7 0 5.1.9 7 2.4l6.6-6.6C34.9 5.1 29.7 3 24 3 15.3 3 7.6 8.6 6.3 14.1z"/><path fill="#FBBC05" d="M24 45c5.8 0 10.7-1.9 14.3-5.1l-6.6-5.4C29.7 36.5 27 37.5 24 37.5c-6.1 0-11.3-5-11.3-11H6.3C7.6 39.4 15.3 45 24 45z"/><path fill="#EA4335" d="M43.6 20.5H42V20H24v8h11.3c-1.2 3.2-4.7 5.5-8.3 5.5-6.1 0-11.3-5-11.3-11S17.9 13 24 13c2.7 0 5.1.9 7 2.4l6.6-6.6C34.9 5.1 29.7 3 24 3c-8.7 0-16.4 5.6-19.7 13.1l6.6 4.8C14.5 16.1 18.8 13 24 13c2.7 0 5.1.9 7 2.4l6.6-6.6C34.9 5.1 29.7 3 24 3c-8.7 0-16.4 5.6-19.7 13.1l6.6 4.8C14.5 16.1 18.8 13 24 13c2.7 0 5.1.9 7 2.4l6.6-6.6C34.9 5.1 29.7 3 24 3c-8.7 0-16.4 5.6-19.7 13.1l6.6 4.8C14.5 16.1 18.8 13 24 13c2.7 0 5.1.9 7 2.4l6.6-6.6C34.9 5.1 29.7 3 24 3c-8.7 0-16.4 5.6-19.7 13.1l6.6 4.8C14.5 16.1 18.8 13 24 13c2.7 0 5.1.9 7 2.4l6.6-6.6C34.9 5.1 29.7 3 24 3c-8.7 0-16.4 5.6-19.7 13.1l6.6 4.8C14.5 16.1 18.8 13 24 13c2.7 0 5.1.9 7 2.4l6.6-6.6C34.9 5.1 29.7 3 24 3c-8.7 0-16.4 5.6-19.7 13.1l6.6 4.8C14.5 16.1 18.8 13 24 13c2.7 0 5.1.9 7 2.4l6.6-6.6C34.9 5.1 29.7 3 24 3c-8.7 0-16.4 5.6-19.7 13.1l6.6 4.8C14.5 16.1 18.8 13 24 13c2.7 0 5.1.9 7 2.4l6.6-6.6C34.9 5.1 29.7 3 24 3c-8.7 0-16.4 5.6-19.7 13.1l6.6 4.8C14.5 16.1 18.8 13 24 13c2.7 0 5.1.9 7 2.4l6.6-6.6C34.9 5.1 29.7 3 24 3z"/></g></svg> 